<svg data-v-fde0c5aa="" xmlns="http://www.w3.org/2000/svg" viewBox="0 0 300 300" class="icon"><!----><defs data-v-fde0c5aa=""><!----></defs><rect data-v-fde0c5aa="" fill="#13293d" x="0" y="0" width="300px" height="300px" class="logo-background-square"></rect><!----><defs data-v-fde0c5aa=""><!----></defs><g data-v-fde0c5aa="" id="c2bc4550-d6d6-4c94-9b9f-2aa3fb649dbe" fill="#25BDD6" stroke="none" transform="matrix(2.8506641387939453,0,0,2.8506641387939453,7.181731150500909,3.7253018418007002)"><path d="M80.1 33.1c0-.1-.1-.1 0 0-.1-.1-.2-.2-.3-.2l-.1-.1-28.1-19.7c-.7-.5-1.5-.5-2.2 0L21 32.8l-.1.1c-.1 0-.1.1-.2.1l-.2.2c0 .1-.1.1-.1.2-.1.1-.1.2-.1.3 0 .1 0 .1-.1.2 0 .2-.1.3-.1.5v33.8c0 .6.3 1.2.8 1.6l28.3 19.7s.1 0 .1.1l.1.1h.1c.3.1.5.2.8.2.2 0 .4 0 .5-.1.1 0 .1 0 .2-.1.1 0 .1 0 .2-.1l.1-.1s.1 0 .1-.1l28.2-20c.2-.2.4-.3.5-.5V33.1zM48.6 84.2l-24.5-17V38.1l9.3 6.5 15.2 10.6v29zm1.9-32.4L33.5 40l-8-5.6 25-17.4 24.9 17.4-24.9 17.4z"></path></g><!----></svg>