<svg data-v-fde0c5aa="" xmlns="http://www.w3.org/2000/svg" viewBox="0 0 300 300" class="iconLeft"><!----><defs data-v-fde0c5aa=""><!----></defs><rect data-v-fde0c5aa="" fill="#13293d" x="0" y="0" width="300px" height="300px" class="logo-background-square"></rect><defs data-v-fde0c5aa=""><!----></defs><g data-v-fde0c5aa="" id="f9c60124-52c6-436b-8988-3d034d8e593e" fill="#25BDD6" transform="matrix(1.5927177667617798,0,0,1.5927177667617798,77.64974642580904,139.96587819393574)"><path d="M0.85 10.50L0.85-0.42L7.35-0.42L7.35 1.22L2.73 1.22L2.73 4.12L6.65 4.12L6.65 5.74L2.73 5.74L2.73 8.86L7.35 8.86L7.35 10.50L0.85 10.50ZM10.57 10.50L8.75 10.50L8.75-0.70L10.57-0.70L10.57 10.50ZM18.63 6.61L18.63 7.46L13.73 7.46L13.73 7.46Q13.83 9.27 15.40 9.27L15.40 9.27L15.40 9.27Q16.10 9.27 16.51 8.93L16.51 8.93L16.51 8.93Q16.91 8.58 16.91 8.12L16.91 8.12L18.63 8.12L18.63 8.18L18.63 8.18Q18.63 9.23 17.77 9.95L17.77 9.95L17.77 9.95Q16.91 10.68 15.39 10.68L15.39 10.68L15.39 10.68Q13.66 10.68 12.79 9.66L12.79 9.66L12.79 9.66Q11.91 8.64 11.91 6.97L11.91 6.97L11.91 6.61L11.91 6.61Q11.91 4.94 12.78 3.92L12.78 3.92L12.78 3.92Q13.65 2.90 15.32 2.90L15.32 2.90L15.32 2.90Q16.95 2.90 17.79 3.92L17.79 3.92L17.79 3.92Q18.63 4.94 18.63 6.61L18.63 6.61ZM15.27 4.31L15.27 4.31L15.27 4.31Q13.85 4.31 13.73 6.12L13.73 6.12L16.80 6.12L16.80 6.12Q16.72 4.31 15.27 4.31ZM24.18 10.50L21.66 10.50L19.35 3.08L21.25 3.08L22.92 8.99L24.58 3.08L26.47 3.08L24.18 10.50ZM33.91 6.61L33.91 7.46L29.01 7.46L29.01 7.46Q29.11 9.27 30.67 9.27L30.67 9.27L30.67 9.27Q31.37 9.27 31.78 8.93L31.78 8.93L31.78 8.93Q32.19 8.58 32.19 8.12L32.19 8.12L33.91 8.12L33.91 8.18L33.91 8.18Q33.91 9.23 33.05 9.95L33.05 9.95L33.05 9.95Q32.19 10.68 30.66 10.68L30.66 10.68L30.66 10.68Q28.94 10.68 28.06 9.66L28.06 9.66L28.06 9.66Q27.19 8.64 27.19 6.97L27.19 6.97L27.19 6.61L27.19 6.61Q27.19 4.94 28.06 3.92L28.06 3.92L28.06 3.92Q28.92 2.90 30.59 2.90L30.59 2.90L30.59 2.90Q32.23 2.90 33.07 3.92L33.07 3.92L33.07 3.92Q33.91 4.94 33.91 6.61L33.91 6.61ZM30.55 4.31L30.55 4.31L30.55 4.31Q29.12 4.31 29.01 6.12L29.01 6.12L32.07 6.12L32.07 6.12Q31.99 4.31 30.55 4.31ZM41.58 5.42L41.58 10.50L39.77 10.50L39.77 5.71L39.77 5.71Q39.77 5.15 39.48 4.82L39.48 4.82L39.48 4.82Q39.19 4.48 38.60 4.48L38.60 4.48L38.60 4.48Q37.58 4.48 37.06 5.33L37.06 5.33L37.06 10.50L35.24 10.50L35.24 5.18L35.11 3.08L36.72 3.08L36.89 4.06L36.89 4.06Q37.69 2.90 39.30 2.90L39.30 2.90L39.30 2.90Q40.45 2.90 41.01 3.61L41.01 3.61L41.01 3.61Q41.58 4.33 41.58 5.42L41.58 5.42ZM45.58 0.98L45.58 3.08L47.64 3.08L47.64 4.68L45.58 4.68L45.58 7.88L45.58 7.88Q45.58 8.58 45.88 8.83L45.88 8.83L45.88 8.83Q46.17 9.09 46.79 9.09L46.79 9.09L46.79 9.09Q47.31 9.09 47.50 8.99L47.50 8.99L47.50 10.50L47.50 10.50Q47.14 10.68 46.35 10.68L46.35 10.68L46.35 10.68Q43.76 10.68 43.76 8.08L43.76 8.08L43.76 4.68L42.63 4.68L42.63 3.08L43.76 3.08L43.76 0.98L45.58 0.98ZM50.33 3.08L51.95 8.23L53.59 3.08L55.55 3.08L52.93 10.14L51.95 13.30L49.80 13.30L50.97 10.14L48.36 3.08L50.33 3.08ZM62.48 5.74L62.48 5.74L62.48 5.74Q60.69 5.50 59.86 4.77L59.86 4.77L59.86 4.77Q59.04 4.05 59.04 2.70L59.04 2.70L59.04 2.56L59.04 2.56Q59.04 1.11 60.02 0.25L60.02 0.25L60.02 0.25Q61.01-0.60 62.78-0.60L62.78-0.60L62.78-0.60Q64.69-0.60 65.60 0.31L65.60 0.31L65.60 0.31Q66.50 1.22 66.50 3.08L66.50 3.08L66.50 3.40L64.62 3.40L64.62 3.40Q64.62 2.17 64.19 1.60L64.19 1.60L64.19 1.60Q63.76 1.04 62.79 1.04L62.79 1.04L62.66 1.04L62.66 1.04Q61.89 1.04 61.42 1.43L61.42 1.43L61.42 1.43Q60.96 1.82 60.96 2.46L60.96 2.46L60.96 2.55L60.96 2.55Q60.96 3.26 61.40 3.64L61.40 3.64L61.40 3.64Q61.85 4.02 63.08 4.19L63.08 4.19L63.08 4.19Q64.90 4.44 65.75 5.15L65.75 5.15L65.75 5.15Q66.60 5.87 66.60 7.28L66.60 7.28L66.60 7.43L66.60 7.43Q66.60 8.97 65.60 9.83L65.60 9.83L65.60 9.83Q64.60 10.68 62.78 10.68L62.78 10.68L62.78 10.68Q58.94 10.68 58.94 6.96L58.94 6.96L58.94 6.82L60.82 6.82L60.82 6.82Q60.82 9.04 62.71 9.04L62.71 9.04L62.83 9.04L62.83 9.04Q63.70 9.04 64.19 8.62L64.19 8.62L64.19 8.62Q64.68 8.20 64.68 7.50L64.68 7.50L64.68 7.42L64.68 7.42Q64.68 6.69 64.19 6.30L64.19 6.30L64.19 6.30Q63.70 5.91 62.48 5.74ZM69.69 10.50L67.87 10.50L67.87-0.70L69.69-0.70L69.69 6.08L72.23 3.08L74.42 3.08L71.93 5.89L74.42 10.50L72.31 10.50L70.69 7.31L69.69 8.44L69.69 10.50ZM81.94 6.61L81.94 7.46L77.04 7.46L77.04 7.46Q77.14 9.27 78.71 9.27L78.71 9.27L78.71 9.27Q79.41 9.27 79.81 8.93L79.81 8.93L79.81 8.93Q80.22 8.58 80.22 8.12L80.22 8.12L81.94 8.12L81.94 8.18L81.94 8.18Q81.94 9.23 81.08 9.95L81.08 9.95L81.08 9.95Q80.22 10.68 78.69 10.68L78.69 10.68L78.69 10.68Q76.97 10.68 76.10 9.66L76.10 9.66L76.10 9.66Q75.22 8.64 75.22 6.97L75.22 6.97L75.22 6.61L75.22 6.61Q75.22 4.94 76.09 3.92L76.09 3.92L76.09 3.92Q76.96 2.90 78.62 2.90L78.62 2.90L78.62 2.90Q80.26 2.90 81.10 3.92L81.10 3.92L81.10 3.92Q81.94 4.94 81.94 6.61L81.94 6.61ZM78.58 4.31L78.58 4.31L78.58 4.31Q77.15 4.31 77.04 6.12L77.04 6.12L80.11 6.12L80.11 6.12Q80.02 4.31 78.58 4.31ZM85.12 10.50L83.30 10.50L83.30-0.70L85.12-0.70L85.12 10.50ZM93.18 6.61L93.18 7.46L88.28 7.46L88.28 7.46Q88.38 9.27 89.95 9.27L89.95 9.27L89.95 9.27Q90.65 9.27 91.06 8.93L91.06 8.93L91.06 8.93Q91.46 8.58 91.46 8.12L91.46 8.12L93.18 8.12L93.18 8.18L93.18 8.18Q93.18 9.23 92.32 9.95L92.32 9.95L92.32 9.95Q91.46 10.68 89.94 10.68L89.94 10.68L89.94 10.68Q88.21 10.68 87.34 9.66L87.34 9.66L87.34 9.66Q86.46 8.64 86.46 6.97L86.46 6.97L86.46 6.61L86.46 6.61Q86.46 4.94 87.33 3.92L87.33 3.92L87.33 3.92Q88.20 2.90 89.87 2.90L89.87 2.90L89.87 2.90Q91.50 2.90 92.34 3.92L92.34 3.92L92.34 3.92Q93.18 4.94 93.18 6.61L93.18 6.61ZM89.82 4.31L89.82 4.31L89.82 4.31Q88.40 4.31 88.28 6.12L88.28 6.12L91.35 6.12L91.35 6.12Q91.27 4.31 89.82 4.31ZM96.98 0.98L96.98 3.08L99.04 3.08L99.04 4.68L96.98 4.68L96.98 7.88L96.98 7.88Q96.98 8.58 97.27 8.83L97.27 8.83L97.27 8.83Q97.57 9.09 98.18 9.09L98.18 9.09L98.18 9.09Q98.70 9.09 98.90 8.99L98.90 8.99L98.90 10.50L98.90 10.50Q98.53 10.68 97.75 10.68L97.75 10.68L97.75 10.68Q95.16 10.68 95.16 8.08L95.16 8.08L95.16 4.68L94.02 4.68L94.02 3.08L95.16 3.08L95.16 0.98L96.98 0.98ZM105.98 9.68L105.98 9.68L105.98 9.68Q105.14 10.68 103.46 10.68L103.46 10.68L103.46 10.68Q101.78 10.68 100.94 9.68L100.94 9.68L100.94 9.68Q100.10 8.68 100.10 7.01L100.10 7.01L100.10 6.57L100.10 6.57Q100.10 4.89 100.94 3.89L100.94 3.89L100.94 3.89Q101.78 2.90 103.46 2.90L103.46 2.90L103.46 2.90Q105.14 2.90 105.98 3.89L105.98 3.89L105.98 3.89Q106.82 4.89 106.82 6.57L106.82 6.57L106.82 7.01L106.82 7.01Q106.82 8.68 105.98 9.68ZM101.92 7.01L101.92 7.01Q101.92 9.09 103.46 9.09L103.46 9.09L103.46 9.09Q105.00 9.09 105.00 7.01L105.00 7.01L105.00 6.57L105.00 6.57Q105.00 4.48 103.46 4.48L103.46 4.48L103.46 4.48Q101.92 4.48 101.92 6.57L101.92 6.57L101.92 7.01ZM114.49 5.42L114.49 10.50L112.69 10.50L112.69 5.71L112.69 5.71Q112.69 5.15 112.39 4.82L112.39 4.82L112.39 4.82Q112.10 4.48 111.51 4.48L111.51 4.48L111.51 4.48Q110.49 4.48 109.97 5.33L109.97 5.33L109.97 10.50L108.15 10.50L108.15 5.18L108.02 3.08L109.63 3.08L109.80 4.06L109.80 4.06Q110.60 2.90 112.21 2.90L112.21 2.90L112.21 2.90Q113.36 2.90 113.93 3.61L113.93 3.61L113.93 3.61Q114.49 4.33 114.49 5.42L114.49 5.42Z"></path></g><defs data-v-fde0c5aa=""><!----></defs><g data-v-fde0c5aa="" id="f3701a68-4cf2-41e5-a211-45fc8dd7f135" stroke="none" fill="#25BDD6" transform="matrix(0.43339261412620544,0,0,0.43339261412620544,31.28881004496987,127.76154339867598)"><path d="M80.1 33.1c0-.1-.1-.1 0 0-.1-.1-.2-.2-.3-.2l-.1-.1-28.1-19.7c-.7-.5-1.5-.5-2.2 0L21 32.8l-.1.1c-.1 0-.1.1-.2.1l-.2.2c0 .1-.1.1-.1.2-.1.1-.1.2-.1.3 0 .1 0 .1-.1.2 0 .2-.1.3-.1.5v33.8c0 .6.3 1.2.8 1.6l28.3 19.7s.1 0 .1.1l.1.1h.1c.3.1.5.2.8.2.2 0 .4 0 .5-.1.1 0 .1 0 .2-.1.1 0 .1 0 .2-.1l.1-.1s.1 0 .1-.1l28.2-20c.2-.2.4-.3.5-.5V33.1zM48.6 84.2l-24.5-17V38.1l9.3 6.5 15.2 10.6v29zm1.9-32.4L33.5 40l-8-5.6 25-17.4 24.9 17.4-24.9 17.4z"></path></g><!----></svg>